<svg xmlns="http://www.w3.org/2000/svg" width="25" height="25" viewBox="0 0 25 25" fill="none">
    <path d="M11.9385 2.38853C12.1682 1.92518 12.8318 1.92518 13.0615 2.38853L15.6666 7.64424C15.7578 7.82824 15.9341 7.95577 16.138 7.98528L21.9632 8.82807C22.4768 8.90237 22.6819 9.53076 22.3102 9.89143L18.0951 13.9824C17.9475 14.1257 17.8802 14.332 17.915 14.5342L18.9101 20.3108C18.9978 20.8201 18.4609 21.2085 18.0016 20.968L12.7914 18.2407C12.609 18.1452 12.391 18.1452 12.2086 18.2407L6.99841 20.968C6.53907 21.2085 6.00221 20.8201 6.08993 20.3108L7.085 14.5342C7.11983 14.332 7.0525 14.1257 6.90493 13.9824L2.68977 9.89143C2.31815 9.53076 2.52321 8.90237 3.03678 8.82807L8.86198 7.98528C9.06592 7.95577 9.24221 7.82824 9.33342 7.64424L11.9385 2.38853Z" fill="#CED2DA"/>
</svg>
