<svg width="25" height="25" viewBox="0 0 25 25" fill="none" xmlns="http://www.w3.org/2000/svg">
    <path d="M14.9706 20.366C14.9706 19.9932 14.6684 19.691 14.2956 19.691H5.32353C5.04739 19.691 4.82353 19.4672 4.82353 19.191V4.89102C4.82353 4.61487 5.04739 4.39102 5.32353 4.39102H14.2956C14.6684 4.39102 14.9706 4.08881 14.9706 3.71602C14.9706 3.34322 14.6684 3.04102 14.2956 3.04102H5.5C4.39543 3.04102 3.5 3.93645 3.5 5.04102V19.041C3.5 20.1456 4.39543 21.041 5.5 21.041H14.2956C14.6684 21.041 14.9706 20.7388 14.9706 20.366ZM13.3947 11.681C13.0468 11.681 12.7647 11.9631 12.7647 12.311C12.7647 12.659 13.0468 12.941 13.3947 12.941H18.9412L16.7698 15.1558C16.5056 15.4253 16.5056 15.8567 16.7698 16.1262C17.0415 16.4034 17.4879 16.4034 17.7596 16.1262L20.8137 13.0111C21.1949 12.6222 21.1949 11.9998 20.8137 11.6109L17.7596 8.49582C17.4879 8.21865 17.0415 8.21865 16.7698 8.49582C16.5056 8.76532 16.5056 9.19671 16.7698 9.46622L18.9412 11.681H13.3947Z" fill="#97A1AF"/>
</svg>
